# AST/ASF file generated using VICON BodyLanguage
# -----------------------------------------------
:version 1.10
:name VICON
:units
  mass 1.0
  length 0.45
  angle deg
:documentation
   .ast/.asf automatically generated from VICON data using
   VICON BodyBuilder and BodyLanguage model FoxedUp or BRILLIANT.MOD
:root
   order TX TY TZ RX RY RZ
   axis XYZ
   position 0 0 0  
   orientation 0 0 0 
:bonedata
  begin
     id 1 
     name lhipjoint
     direction 0.535335 -0.74333 0.401095 
     length 2.04549 
     axis 0 0 0  XYZ
  end
  begin
     id 2 
     name lfemur
     direction 0.34202 -0.939693 0  
     length 6.95643  
     axis 0 0 20  XYZ
    dof rx ry rz
    limits (-160.0 20.0)
           (-70.0 70.0)
           (-60.0 70.0)
  end
  begin
     id 3 
     name ltibia
     direction 0.34192 -0.939729 0   
     length 5.55969   
     axis 0 0 20   XYZ
    dof rx
    limits (-10.0 170.0)
  end
  begin
     id 4 
     name lfoot
     direction 0.216943 -0.596046 0.773088   
     length 2.27918   
     axis -90 7.62852e-016 20   XYZ
    dof rx rz
    limits (-45.0 90.0)
           (-70.0 20.0)
  end
  begin
     id 5 
     name ltoes
     direction 1.53519e-011 -4.21748e-011 1   
     length 1.05562   
     axis -90 7.62852e-016 20   XYZ
    dof rx
    limits (-90.0 20.0)
  end
  begin
     id 6 
     name rhipjoint
     direction -0.576368 -0.719173 0.38806   
     length 2.1142  
     axis 0 0 0  XYZ 
  end
  begin
     id 7 
     name rfemur
     direction -0.34202 -0.939693 0   
     length 7.07928   
     axis 0 0 -20   XYZ
    dof rx ry rz
    limits (-160.0 20.0)
           (-70.0 70.0)
           (-70.0 60.0)
  end
  begin
     id 8 
     name rtibia
     direction -0.34202 -0.939693 0   
     length 5.79974   
     axis 0 0 -20   XYZ
    dof rx
    limits (-10.0 170.0)
 end
 begin
     id 9 
     name rfoot
     direction -0.189288 -0.520065 0.832888   
     length 2.42173  
     axis -90 -7.62852e-016 -20   XYZ
    dof rx rz
    limits (-45.0 90.0)
           (-20.0 70.0)
  end
  begin
     id 10 
     name rtoes
     direction -1.53574e-011 -4.21658e-011 1   
     length 1.14469   
     axis -90 -7.62852e-016 -20   XYZ
    dof rx
    limits (-90.0 20.0)
  end
  begin
     id 11 
     name lowerback
     direction -0.00135702 0.993803 0.111144   
     length 1.91308   
     axis 0 0 0   XYZ
    dof rx ry rz
    limits (-20.0 45.0)
           (-30.0 30.0)
           (-30.0 30.0)
  end
  begin
     id 12 
     name upperback
     direction -0.0056745 0.999813 0.0184631   
     length 1.9212   
     axis 0 0 0   XYZ
    dof rx ry rz
    limits (-20.0 45.0)
           (-30.0 30.0)
           (-30.0 30.0)
  end
  begin
     id 13 
     name thorax
     direction -0.00733434 0.999426 -0.0330788   
     length 1.94196   
     axis 0 0 0   XYZ
    dof rx ry rz
    limits (-20.0 45.0)
           (-30.0 30.0)
           (-30.0 30.0)
  end
  begin
     id 14 
     name lowerneck
     direction 0.0563074 0.996944 -0.0541571   
     length 2.34257   
     axis 0 0 0   XYZ
    dof rx ry rz
    limits (-20.0 45.0)
           (-30.0 30.0)
           (-30.0 30.0)
  end
  begin
     id 15 
     name upperneck
     direction -0.0544519 0.976166 -0.210085   
     length 2.32506   
     axis 0 0 0   XYZ
    dof rx ry rz
    limits (-20.0 45.0)
           (-30.0 30.0)
           (-30.0 30.0)
  end
  begin
     id 16
     name head
     direction -0.0226035 0.997615 -0.0652205  
     length 2.3648  
     axis 0 0 0   XYZ
    dof rx ry rz
    limits (-20.0 45.0)
           (-30.0 30.0)
           (-30.0 30.0)
  end
  begin
     id 17 
     name lclavicle
     direction 0.92109 0.381297 -0.0787716  
     length 4.0487  
     axis 0 0 0   XYZ
    dof ry rz
    limits (-20.0 10.0)
           (0.0 20.0)
  end
  begin
     id 18 
     name lhumerus
     direction 1 -4.48986e-011 3.56724e-027   
     length 4.94991   
     axis 180 -30 -90   XYZ
    dof rx ry rz
    limits (-60.0 90.0)
           (-90.0 90.0)
           (-90.0 90.0)
  end
  begin
     id 19
     name lradius
     direction 1 -4.48981e-011 8.62147e-027   
     length 2.7606   
     axis 180 -30 -90   XYZ
    dof rx
    limits (-10.0 170.0)
  end
  begin
     id 20
     name lwrist
     direction 1 -4.48989e-011 1.59799e-026   
     length 1.3803   
     axis -1.17785e-014 90 90   XYZ
    dof ry
    limits (-180.0 0.0)
 end
  begin
     id 21 
     name lhand
     direction 1 -4.48896e-011 3.19599e-026   
     length 0.843936   
     axis -2.03931e-014 90 90   XYZ
    dof rx rz
    limits (-90.0 90.0)
           (-45.0 45.0)
  end
  begin
     id 22 
     name lfingers
     direction 1 -4.48887e-011 6.39197e-026   
     length 0.680403   
     axis -4.07862e-014 90 90   XYZ
    dof rx
    limits (0.0 90.0)
  end
  begin
     id 23
     name lthumb
     direction 0.707107 -6.348e-011 0.707107   
     length 0.976926   
     axis -90 45 2.85299e-015   XYZ
    dof rx rz
    limits (-45.0 45.0)
           (-45.0 45.0)
  end
  begin
     id 24 
     name rclavicle
     direction -0.951104 0.307692 -0.026953   
     length 4.21801  
     axis 0 0 0   XYZ 
    dof ry rz
    limits (-10.0 20.0)
           (-20.0 0.0)
  end
  begin
     id 25 
     name rhumerus
     direction -1 -4.4896e-011 -1.8171e-018  
     length 4.32982   
     axis 180 30 90   XYZ
    dof rx ry rz
    limits (-90.0 60.0)
           (-90.0 90.0)
           (-90.0 90.0)
  end
  begin
     id 26 
     name rradius
     direction -1 -4.48959e-011 8.25165e-027   
     length 3.20057   
     axis 180 30 90   XYZ
    dof rx
    limits (-10.0 170.0)
  end
  begin
     id 27 
     name rwrist
     direction -1 -4.48997e-011 1.59799e-026   
     length 1.60029   
     axis -1.17785e-014 -90 -90   XYZ
    dof ry
    limits (-180.0 0.0)
  end
  begin
     id 28
     name rhand
     direction -1 -4.49023e-011 3.19599e-026   
     length 0.960433   
     axis -2.03931e-014 -90 -90   XYZ
    dof rx rz
    limits (-90.0 90.0)
           (-45.0 45.0)
  end
  begin
     id 29
     name rfingers
     direction -1 -4.48802e-011 6.39197e-026   
     length 0.774326   
     axis -4.07862e-014 -90 -90   XYZ
    dof rx
    limits (0.0 90.0)
  end
  begin
     id 30
     name rthumb
     direction -0.707107 -6.34876e-011 0.707107   
     length 1.11178   
     axis -90 -45 -2.85299e-015   XYZ
    dof rx rz
    limits (-45.0 45.0)
           (-45.0 45.0)
  end
:hierarchy
  begin
    root lhipjoint rhipjoint lowerback
    lhipjoint lfemur
    lfemur ltibia
    ltibia lfoot
    lfoot ltoes
    rhipjoint rfemur
    rfemur rtibia
    rtibia rfoot
    rfoot rtoes
    lowerback upperback
    upperback thorax
    thorax lowerneck lclavicle rclavicle
    lowerneck upperneck
    upperneck head
    lclavicle lhumerus
    lhumerus lradius
    lradius lwrist
    lwrist lhand lthumb
    lhand lfingers
    rclavicle rhumerus
    rhumerus rradius
    rradius rwrist
    rwrist rhand rthumb
    rhand rfingers
end

#!OML:ASF C:\KaitlinTest1\Natural Motions\Nikki\Session 2\Nikki.ASF
:FULLY-SPECIFIED
:DEGREES
658
root 1.00882 16.5386 4.95798 -143.372 84.1707 -154.535
lowerback -12.7411 -3.17343 0.741652
upperback -3.73353 -4.14898 0.304248
thorax 3.17816 -1.98889 -0.725217
lowerneck -5.05088 -11.9471 -7.67595
upperneck 8.24333 43.9608 6.19558
head 136.82 72.5268 -66.5492
rclavicle 2.90723e-015 7.95139e-016
rhumerus -38.2564 -18.6023 -82.8728
rradius 18.5554
rwrist 18.231
rhand -37.397 1.97779
rfingers 7.12502
rthumb -10.4576 -27.7421
lclavicle 2.90723e-015 7.95139e-016
lhumerus -40.2448 17.4318 81.1002
lradius 22.7345
lwrist -31.5878
lhand -35.338 4.50323
lfingers 7.12502
lthumb -8.47101 34.3133
rfemur -17.3978 -15.9475 22.5624
rtibia 26.0059
rfoot -16.97 10.9952
rtoes -8.0309e-014
lfemur -21.1455 19.4218 -20.0823
ltibia 28.1949
lfoot -10.2823 -23.9446
ltoes -7.63333e-014
659
root 1.00791 16.539 4.96064 -143.77 84.2154 -154.939
lowerback -12.7307 -3.17137 0.675955
upperback -3.73403 -4.13598 0.255266
thorax 3.17318 -1.98274 -0.736805
lowerneck -5.09144 -11.9555 -7.67722
upperneck 8.28413 44.0947 6.19487
head 136.326 72.5436 -67.0377
rclavicle 5.11374e-014 -2.78299e-015
rhumerus -38.3825 -19.5975 -82.1682
rradius 18.2579
rwrist 20.4887
rhand -36.9023 2.43981
rfingers 7.12502
rthumb -9.98041 -27.3036
lclavicle 5.11374e-014 -2.78299e-015
lhumerus -40.3607 17.54 80.9049
lradius 22.7739
lwrist -31.2644
lhand -35.5523 4.3279
lfingers 7.12502
lthumb -8.67779 34.1295
rfemur -17.4184 -15.8969 22.5138
rtibia 26.0413
rfoot -16.9863 10.9342
rtoes 8.26944e-014
lfemur -21.1427 19.3748 -20.132
ltibia 28.1648
lfoot -10.2284 -23.9008
ltoes -1.59028e-015
660
root 1.00743 16.5401 4.96418 -144.124 84.2494 -155.255
lowerback -12.6953 -3.15952 0.603997
upperback -3.69911 -4.11178 0.216568
thorax 3.19309 -1.97155 -0.732443
lowerneck -5.1511 -11.9672 -7.72386
upperneck 8.28303 44.1501 6.14601
head 135.684 72.6034 -67.6444
rclavicle -7.87684e-015 -2.38542e-015
rhumerus -38.1698 -18.4616 -83.1548
rradius 18.5768
rwrist 18.0437
rhand -37.4304 2.11143
rfingers 7.12502
rthumb -10.4899 -27.6068
lclavicle -7.87684e-015 -2.38542e-015
lhumerus -40.427 17.4772 80.8187
lradius 22.881
lwrist -30.9832
lhand -35.5883 4.40066
lfingers 7.12502
lthumb -8.71248 34.2009
rfemur -17.3888 -15.8882 22.4714
rtibia 26.0715
rfoot -17.0431 10.9094
rtoes -6.91771e-014
lfemur -21.0864 19.349 -20.1454
ltibia 28.1371
lfoot -10.2177 -23.8548
ltoes -4.6118e-014
661
root 1.0054 16.5415 4.96748 -144.05 84.2687 -155.16
lowerback -12.6797 -3.13927 0.596259
upperback -3.65507 -4.08456 0.170558
thorax 3.22816 -1.95868 -0.772474
lowerneck -5.24449 -11.9676 -7.74405
upperneck 8.29579 44.2676 6.12836
head 135.123 72.6655 -68.2234
rclavicle 1.80397e-014 7.95139e-016
rhumerus -38.0938 -18.3083 -83.369
rradius 18.6333
rwrist 17.8957
rhand -37.3961 2.10723
rfingers 7.12502
rthumb -10.4567 -27.6127
lclavicle 1.80397e-014 7.95139e-016
lhumerus -40.5109 17.849 80.4317
lradius 22.8932
lwrist -31.1418
lhand -35.5116 4.38713
lfingers 7.12502
lthumb -8.63852 34.1904
rfemur -17.3922 -15.7922 22.4628
rtibia 26.1019
rfoot -17.0122 10.8665
rtoes -7.63333e-014
lfemur -21.0612 19.3548 -20.1282
ltibia 28.119
lfoot -10.2173 -23.8464
ltoes 1.27222e-014
662
root 1.00359 16.54 4.97159 -144.237 84.2992 -155.291
lowerback -12.6192 -3.11482 0.53972
upperback -3.60966 -4.04668 0.140548
thorax 3.24505 -1.94104 -0.764591
lowerneck -5.34368 -11.9875 -7.78634
upperneck 8.30086 44.3697 6.07725
head 134.273 72.735 -69.0483
rclavicle 1.43125e-014 -3.97569e-016
rhumerus -38.0391 -18.1772 -83.5178
rradius 18.6701
rwrist 17.7756
rhand -37.3655 2.18164
rfingers 7.12502
rthumb -10.4272 -27.5398
lclavicle 1.43125e-014 -3.97569e-016
lhumerus -40.5307 17.8533 80.329
lradius 22.8913
lwrist -30.8507
lhand -35.6314 4.34502
lfingers 7.12502
lthumb -8.75412 34.1435
rfemur -17.3537 -15.7856 22.4333
rtibia 26.1411
rfoot -17.0169 10.863
rtoes -2.14687e-014
lfemur -20.9858 19.327 -20.115
ltibia 28.1119
lfoot -10.2271 -23.816
ltoes 6.36111e-015
663
root 1.00043 16.5378 4.97707 -144.139 84.3143 -155.15
lowerback -12.5516 -3.09073 0.53136
upperback -3.56304 -4.0141 0.0799905
thorax 3.25361 -1.92605 -0.815675
lowerneck -5.44509 -11.9908 -7.79745
upperneck 8.32544 44.5254 6.0751
head 133.849 72.7571 -69.5062
rclavicle -1.42131e-014 1.15295e-014
rhumerus -37.985 -17.7815 -83.9057
rradius 18.8122
rwrist 17.3504
rhand -37.2894 2.09706
rfingers 7.12502
rthumb -10.3538 -27.628
lclavicle -1.42131e-014 1.15295e-014
lhumerus -40.6097 18.203 79.9121
lradius 22.9095
lwrist -30.9333
lhand -35.6688 4.25023
lfingers 7.12502
lthumb -8.79017 34.0472
rfemur -17.3314 -15.7742 22.467
rtibia 26.1719
rfoot -17.1026 10.8273
rtoes 4.77083e-014
lfemur -20.9576 19.3107 -20.0724
ltibia 28.1232
lfoot -10.2011 -23.7673
ltoes 4.29375e-014
664
root 0.998374 16.5378 4.98217 -144.239 84.3568 -155.253
lowerback -12.562 -3.06533 0.471712
upperback -3.52153 -3.97244 0.0202353
thorax 3.30304 -1.90579 -0.840256
lowerneck -5.53566 -12.0019 -7.81154
upperneck 8.33335 44.623 6.05242
head 133.216 72.8213 -70.1487
rclavicle 1.42131e-014 1.98785e-015
rhumerus -38.0856 -18.4072 -83.428
rradius 18.6399
rwrist 19.3702
rhand -36.6075 2.63404
rfingers 7.12502
rthumb -9.69594 -27.1228
lclavicle 1.42131e-014 1.98785e-015
lhumerus -40.6393 18.1995 79.7385
lradius 22.9186
lwrist -30.585
lhand -35.7923 4.40816
lfingers 7.12502
lthumb -8.90935 34.2001
rfemur -17.3738 -15.9492 22.4732
rtibia 26.1989
rfoot -17.1052 11.0357
rtoes 1.59028e-015
lfemur -20.9807 19.3715 -20.1042
ltibia 28.1407
lfoot -10.2512 -23.8038
ltoes 0
665
root 0.995565 16.5351 4.98943 -143.277 84.3076 -154.18
lowerback -12.4324 -3.02966 0.523391
upperback -3.45799 -3.93498 -0.00114893
thorax 3.29438 -1.88891 -0.880646
lowerneck -5.61786 -11.9985 -7.84779
upperneck 8.3672 44.7959 6.05999
head 132.947 72.8358 -70.4726
rclavicle 6.00205e-014 2.38542e-015
rhumerus -37.9094 -16.7175 -84.7694
rradius 19.1765
rwrist 16.4976
rhand -37.084 1.84233
rfingers 7.12502
rthumb -10.1557 -27.8926
lclavicle 6.00205e-014 2.38542e-015
lhumerus -40.7059 18.2813 79.4875
lradius 22.9755
lwrist -30.3917
lhand -35.7995 4.51284
lfingers 7.12502
lthumb -8.91636 34.3044
rfemur -17.2774 -16.0168 22.6095
rtibia 26.2067
rfoot -17.1363 11.1253
rtoes -2.38542e-015
lfemur -20.8581 19.2411 -19.8784
ltibia 28.1685
lfoot -10.265 -23.6492
ltoes -2.54444e-014
666
root 0.992807 16.5365 4.99545 -143.383 84.3449 -154.235
lowerback -12.3865 -3.00716 0.407974
upperback -3.41326 -3.89249 -0.0228881
thorax 3.32308 -1.86895 -0.831556
lowerneck -5.66867 -11.9984 -7.92851
upperneck 8.39605 44.939 6.03192
head 132.427 72.8702 -70.9999
rclavicle -1.89094e-014 6.75868e-015
rhumerus -38.046 -17.2329 -84.2779
rradius 19.0305
rwrist 18.7502
rhand -36.479 2.37006
rfingers 7.12502
rthumb -9.57199 -27.3925
lclavicle -1.89094e-014 6.75868e-015
lhumerus -40.8901 18.8241 79.0309
lradius 23.065
lwrist -30.5624
lhand -35.9201 4.40376
lfingers 7.12502
lthumb -9.03275 34.1904
rfemur -17.2445 -16.0336 22.6008
rtibia 26.217
rfoot -17.1608 11.1528
rtoes -6.52014e-014
lfemur -20.8196 19.2339 -19.8733
ltibia 28.1736
lfoot -10.3072 -23.5887
ltoes -5.08889e-014
667
root 0.98826 16.5376 4.99728 -143.099 84.3687 -153.892
lowerback -12.2374 -2.93159 0.465851
upperback -3.42077 -3.79733 -0.0955056
thorax 3.2265 -1.82306 -0.916623
lowerneck -5.66943 -12.0451 -7.97044
upperneck 8.4542 45.0861 6.0268
head 131.999 72.8353 -71.4128
rclavicle 2.04127e-014 6.75868e-015
rhumerus -38.1492 -16.6562 -84.6888
rradius 19.2891
rwrist 18.5174
rhand -36.3869 2.29225
rfingers 7.12502
rthumb -9.48311 -27.4744
lclavicle 2.04127e-014 6.75868e-015
lhumerus -41.0288 19.1221 78.6113
lradius 22.9924
lwrist -30.6307
lhand -35.9352 4.36291
lfingers 7.12502
lthumb -9.04729 34.1489
rfemur -17.204 -16.2046 22.623
rtibia 26.2093
rfoot -17.1901 11.3859
rtoes 1.35174e-014
lfemur -20.7463 19.1148 -19.8096
ltibia 28.1787
lfoot -10.3009 -23.4007
ltoes 7.15625e-014
668
root 0.987152 16.5375 5.00461 -142.998 84.3983 -153.742
lowerback -12.2265 -2.87737 0.409641
upperback -3.35134 -3.71916 -0.160512
thorax 3.29355 -1.78505 -0.943052
lowerneck -5.72694 -12.0819 -8.00045
upperneck 8.43724 45.0854 5.9762
head 131.216 72.928 -72.1707
rclavicle -9.18137e-015 -7.95139e-016
rhumerus -38.0871 -16.0566 -85.1589
rradius 19.4444
rwrist 18.2064
rhand -36.2658 2.28059
rfingers 7.12502
rthumb -9.36632 -27.4913
lclavicle -9.18137e-015 -7.95139e-016
lhumerus -41.473 21.3533 76.9599
lradius 22.9681
lwrist -33.0964
lhand -35.6527 4.08283
lfingers 7.12502
lthumb -8.77462 33.8804
rfemur -17.1629 -16.0779 22.6238
rtibia 26.2121
rfoot -17.157 11.3036
rtoes -2.8625e-014
lfemur -20.6725 18.9478 -19.7398
ltibia 28.1705
lfoot -10.3225 -23.1938
ltoes -1.74931e-014
669
root 0.985036 16.5365 5.01008 -142.833 84.3977 -153.557
lowerback -12.1873 -2.80026 0.423858
upperback -3.34371 -3.6161 -0.234947
thorax 3.27604 -1.73428 -1.0113
lowerneck -5.71211 -12.1328 -8.04219
upperneck 8.48737 45.194 5.9808
head 130.917 72.9125 -72.477
rclavicle 3.59055e-014 7.15625e-015
rhumerus -38.1463 -15.3516 -85.6669
rradius 19.6812
rwrist 17.6759
rhand -36.1892 2.39988
rfingers 7.12502
rthumb -9.29237 -27.3753
lclavicle 3.59055e-014 7.15625e-015
lhumerus -41.3903 19.8295 77.6752
lradius 23.11
lwrist -31.1885
lhand -35.9943 4.48642
lfingers 7.12502
lthumb -9.10433 34.2699
rfemur -17.1501 -15.9738 22.65
rtibia 26.2245
rfoot -17.0913 11.1681
rtoes -9.85972e-014
lfemur -20.6453 18.8957 -19.6936
ltibia 28.1561
lfoot -10.3457 -23.1318
ltoes 7.95139e-015
670
root 0.981141 16.5354 5.01427 -142.724 84.403 -153.442
lowerback -12.1346 -2.72765 0.442893
upperback -3.33312 -3.51942 -0.319506
thorax 3.25348 -1.68681 -1.0932
lowerneck -5.71441 -12.2032 -8.04306
upperneck 8.47213 45.1221 5.92581
head 129.854 73.0286 -73.4755
rclavicle 6.78353e-015 3.18055e-015
rhumerus -38.1228 -14.4303 -86.3349
rradius 19.9266
rwrist 17.1182
rhand -36.1048 2.17618
rfingers 7.12502
rthumb -9.21097 -27.6026
lclavicle 6.78353e-015 3.18055e-015
lhumerus -41.4627 19.7549 77.4759
lradius 23.1442
lwrist -30.6788
lhand -36.0287 4.48845
lfingers 7.12502
lthumb -9.13747 34.2705
rfemur -17.1585 -15.9405 22.6695
rtibia 26.234
rfoot -17.1512 11.1674
rtoes -6.75868e-014
lfemur -20.6368 18.7795 -19.6614
ltibia 28.1568
lfoot -10.3574 -22.9786
ltoes -3.97569e-014
671
root 0.978873 16.5362 5.02045 -143.058 84.4307 -153.766
lowerback -12.0925 -2.64735 0.396484
upperback -3.33256 -3.40341 -0.415738
thorax 3.2301 -1.6297 -1.14817
lowerneck -5.68282 -12.2875 -8.06314
upperneck 8.5335 45.2319 5.92776
head 129.584 72.9423 -73.7129
rclavicle -1.01132e-014 1.19271e-014
rhumerus -38.1802 -13.4408 -87.0093
rradius 20.2136
rwrist 16.4035
rhand -35.9591 2.16307
rfingers 7.12502
rthumb -9.07036 -27.6219
lclavicle -1.01132e-014 1.19271e-014
lhumerus -41.9065 21.7959 75.859
lradius 22.8849
lwrist -33.09
lhand -35.9368 4.14334
lfingers 7.12502
lthumb -9.04884 33.9292
rfemur -17.1797 -16.001 22.647
rtibia 26.2547
rfoot -17.1354 11.2644
rtoes -4.21423e-014
lfemur -20.6283 18.6757 -19.6689
ltibia 28.1568
lfoot -10.3392 -22.8692
ltoes -6.36111e-015
